# xmcd
#
# Track frame offsets:
#	150
#	20659
#	35341
#	47198
#	59877
#	73490
#	83425
#	100103
#	119149
#	132804
#	147991
#	157020
#
# Disc length: 2296 seconds
#
# Revision: 1
# Processed by: cddbd v1.5.1PL2 Copyright (c) Steve Scherf et al.
# Submitted via: EasyCDDAExtractor 8.2.3.1
#
DISCID=b508f60c
DTITLE=Jacó e Jacózinho - Mas quem não é?
DYEAR=1979
DGENRE=Sertanejo
TTITLE0=Mas quem não é
TTITLE1=Não brinque com o boiadeiro
TTITLE2=Mato Grosso de norte a sul
TTITLE3=O gigante vermelho
TTITLE4=Tatu malandro
TTITLE5=Cobertor de orelha
TTITLE6=Meu amigo motorista
TTITLE7=Coroa de espinhos
TTITLE8=O sol e a lua
TTITLE9=É proibido caçar
TTITLE10=Sou e não sou
TTITLE11=O dinheiro é quem manda
EXTD=
EXTT0=
EXTT1=
EXTT2=
EXTT3=
EXTT4=
EXTT5=
EXTT6=
EXTT7=
EXTT8=
EXTT9=
EXTT10=
EXTT11=
PLAYORDER=
